PathFileType	4	(X/Y/Z)	Patient4_TMGait_0pt6_02_left_45.trc.trc
DataRate	CameraRate	NumFrames	NumMarkers	Units	OrigDataRate	OrigDataStartFrame	OrigNumFrames
81.871345029240	81.871345029240	4	33	mm	81.871345029240	71	       141
Frame#	Time	Sacral			L.Shoulder			Chest			R.Shoulder			Neck			R.ASIS			L.ASIS			R.Thigh.Superior			R.Thigh.Lateral			R.Thigh.Inferior			R.Patella			L.Thigh.Superior			L.Thigh.Lateral			L.Thigh.Inferior			L.Patella			L.Shank.Superior			L.Shank.Lateral			L.Shank.Inferior			R.Shank.Superior			R.Shank.Lateral			R.Shank.Inferior			R.Heel			R.Midfoot.Superior			R.Midfoot.Lateral			R.Toe			L.Heel			L.Midfoot.Lateral			L.Midfoot.Superior			L.Toe			L.Elbow			L.Wrist			R.Elbow			R.Wrist			
		X1	Y1	Z1	X2	Y2	Z2	X3	Y3	Z3	X4	Y4	Z4	X5	Y5	Z5	X6	Y6	Z6	X7	Y7	Z7	X8	Y8	Z8	X9	Y9	Z9	X10	Y10	Z10	X11	Y11	Z11	X12	Y12	Z12	X13	Y13	Z13	X14	Y14	Z14	X15	Y15	Z15	X16	Y16	Z16	X17	Y17	Z17	X18	Y18	Z18	X19	Y19	Z19	X20	Y20	Z20	X21	Y21	Z21	X22	Y22	Z22	X23	Y23	Z23	X24	Y24	Z24	X25	Y25	Z25	X26	Y26	Z26	X27	Y27	Z27	X28	Y28	Z28	X29	Y29	Z29	X30	Y30	Z30	X31	Y31	Z31	X32	Y32	Z32	X33	Y33	Z33	

71	55.765000000000	823.327908646347	1002.696889580437	446.730849285706	1035.082668899990	1429.419296777894	284.602230658863	1114.865404404615	1351.372800715277	453.717581256143	1016.827473850023	1429.118926577773	617.034397898890	1018.029687087009	1488.693897078526	435.989186692478	1043.138833553395	937.699542846051	577.472281768024	1045.021758449032	959.037813290674	299.492674339594	1126.039843382841	775.584659117999	547.899786417934	1090.887231308805	651.759409157860	623.902951325665	1183.192234308697	619.131680340045	545.543739256419	1222.446525302268	532.980619711870	565.129942938878	1049.681833154603	732.353640563584	333.789880147092	936.142802992643	636.073153372048	268.832939842096	992.376336461929	544.748352600605	338.626762290396	977.799190331827	479.832034515267	349.325951547211	948.596168903120	412.806566657302	341.223145758783	854.533730797401	302.084541975080	289.625104682501	894.711421211329	191.495289066580	369.241999158405	1200.653329274576	442.897025712679	575.730692377373	1141.026276122116	333.049197159847	640.691450838016	1205.281144562869	242.690462074638	590.328280805609	1105.651728231289	57.612410018873	566.386308969522	1270.207735543959	130.845978628532	603.849029557063	1191.545691673691	55.103034986722	638.294518465657	1394.530127837897	91.840176751564	625.687891471403	759.543965194876	38.480885405439	413.150869840499	834.481743540205	35.276044821105	333.466366282933	917.519025738213	95.795391672729	361.227473618855	1046.742104389327	41.978684251867	335.727455631783	1147.286193116306	1141.924950160714	104.125643604387	1391.496155864870	1097.910367899038	175.648086596074	837.768033846768	1136.883658195398	723.156660657846	771.839313576170	883.667616956271	732.713492487021	
72	55.777214285714	824.604927476060	1000.607168369461	448.602990689628	1034.100846396898	1427.612164201936	285.803617428867	1114.330319978881	1350.538210659595	455.109704857041	1016.079534363464	1428.398927809145	618.200668349054	1016.922367746589	1487.267265742166	437.019486840227	1044.536381473884	935.506268926153	579.191789753697	1046.464997344209	957.799320760686	301.193356984263	1125.423809394833	770.165541891205	550.358711890668	1086.372863121490	646.462721817575	624.390982305939	1178.850745419917	612.942925777073	546.667519439049	1216.048478463957	527.302106395300	565.098537985524	1049.500946362058	730.706945855491	334.991030581339	934.971958017940	635.337882823251	269.820515135094	990.196387297319	543.447406633928	339.552205907583	974.926366056892	478.370397512242	350.150322202067	945.000140706804	411.642197970794	341.922775690604	849.655863094349	302.064188715693	290.041330845107	888.484654633559	190.862157353322	369.424290668755	1195.185318322063	437.379542976761	575.042705256315	1135.774462928328	326.377475394435	637.935616465208	1201.799582202111	237.233055395553	587.552148099237	1104.174201836084	52.240128234416	561.096826505321	1267.974302480094	125.659563054771	599.941889609160	1189.414392884099	50.011302620162	633.683690602758	1392.384389349298	87.125877665744	622.631592509704	752.169038141302	38.449558974072	413.072010470789	827.115343048814	35.212130594235	333.427130181318	910.161085856352	95.690245739483	361.268755400467	1039.376859326781	41.823428384133	335.740332026023	1147.595243581505	1140.912026912909	105.566231886110	1391.956135989439	1104.338189721360	179.384692347824	833.490857579953	1139.301139350100	723.843029027614	764.221724870170	886.793203463211	732.845831761730	
73	55.789428571429	825.981644429862	998.629909883592	450.565412423984	1033.163590985196	1425.851510720409	287.087162009905	1113.913463850282	1349.781317292575	456.575761646554	1015.467169729540	1427.671939717955	619.507141836036	1015.891559737059	1485.908244235833	438.164516702693	1046.002950158826	933.446371451113	581.080264739080	1048.062845678282	956.509958328898	303.197006907540	1125.078047945603	765.041433578335	553.029237901952	1081.997482882967	641.481533038672	624.694164239423	1174.782468103794	607.255244937359	547.714728858187	1209.800113548515	521.859840527375	564.784972771268	1049.666448346425	729.063486474919	336.363947628621	934.212852876669	634.529127433676	271.077867513129	988.561281586030	542.092571909316	340.701052315952	972.620857762273	476.763689910876	351.238924849660	941.880177787075	410.345534233017	342.850685832970	845.101772019976	302.095939762386	290.635531594753	882.413417409489	190.192029052862	369.683825800969	1189.539747842985	432.004539054077	574.088945178484	1129.816802178557	320.219524029700	635.006433973227	1196.961919370229	231.943918255681	584.576199498268	1100.004323616074	48.029742225010	555.948554142573	1263.603524252670	120.283767514051	595.737903759022	1184.621710949507	45.620921519951	629.148667033284	1387.813484592504	81.292723962444	619.270566340177	744.795734349943	38.474401823681	412.956893867568	819.770038397418	35.171064880255	333.381235696342	902.836922569503	95.612287913451	361.303194530970	1032.030573850013	41.634061344314	335.739560110436	1147.372660143108	1139.470042398558	107.195521669360	1391.690669357875	1109.616509080733	183.065521787737	830.390843108195	1140.886608782048	724.578033239732	758.402566379115	888.963420862020	733.033621610701	
74	55.801642857143	827.395968360558	996.863076100963	452.583462178858	1032.338892813891	1424.209575806097	288.457634238025	1113.647858118485	1349.129613190689	458.121636216824	1015.011541092772	1426.976032295838	620.953623050012	1015.009779276035	1484.679687416724	439.431475283465	1047.477304654841	931.624207412557	583.124586664224	1049.742420959413	955.228300788988	305.478367929094	1125.001102492217	760.397300555019	555.832229932709	1077.893407860226	637.019630834343	624.844363816350	1171.063958036950	602.269366724905	548.646058175875	1203.861260477346	516.890799946680	564.188149402252	1050.114832213588	727.481082777570	337.906612363612	933.816525385198	633.681243772400	272.607323444799	987.453060490782	540.722077577298	342.068737672322	970.894410454344	475.038711165090	352.572000462489	939.219243748391	408.954793238408	343.997164842007	840.858577091636	302.220878092981	291.413208612845	876.500888813454	189.529450297374	370.016710558663	1183.946828562841	427.016741247183	572.934586857827	1123.599339520904	314.778986839131	632.171319758145	1191.215410724735	227.033127689260	581.587534074351	1093.754746142590	44.913465933451	551.302474764176	1257.636223575485	115.034432519968	591.502080862998	1177.843934605068	42.053068517367	625.010780961722	1381.464346849845	74.895491496253	615.833395366771	737.426285800981	38.612776618009	412.805226540508	812.452248466621	35.176094321810	333.333046107948	895.568820481374	95.576691583495	361.320957848973	1024.710287233420	41.413140380503	335.722542615836	1146.605693199377	1137.610865382530	109.016700250539	1390.758958403323	1113.687827090939	186.658157962864	828.491607540791	1141.604976364781	725.398616449299	754.423365796212	890.133129328203	733.329446894929	
